<?xml version="1.0" encoding="utf-8"?>
<!-- Generator: Adobe Illustrator 26.2.0, SVG Export Plug-In . SVG Version: 6.00 Build 0)  -->
<svg version="1.1" id="Layer_1" xmlns="http://www.w3.org/2000/svg" xmlns:xlink="http://www.w3.org/1999/xlink" x="0px" y="0px"
	 viewBox="0 0 426.59 426.59" style="enable-background:new 0 0 426.59 426.59;" xml:space="preserve">
<style type="text/css">
	.st0{fill:#FFFFFF;}
	.st1{fill:#0071BC;}
	.st2{fill:url(#SVGID_1_);}
</style>
<circle class="st0" cx="213.3" cy="213.3" r="213.3"/>
<g>
	<path class="st1" d="M105.8,260.36c0-2.89-2.42-5.31-5.31-5.31s-5.21,2.42-5.21,5.31s2.33,5.21,5.21,5.21
		c6.8,0,12.94,3.26,16.85,8.29c2.98,3.72,4.66,8.38,4.66,13.5c0,11.92-9.59,21.42-21.51,21.42s-21.51-9.4-21.51-21.69h16.29
		c0,2.98,2.33,5.31,5.21,5.31s5.31-2.33,5.31-5.21s-2.42-5.31-5.31-5.31c-11.92,0-21.42-9.5-21.42-21.42s9.5-21.51,21.42-21.51
		s21.51,9.5,21.51,21.42H105.8z"/>
	<path class="st1" d="M135.03,238.94h29.42c14.15,0,25.7,11.55,25.7,25.7c0,14.06-11.45,25.6-25.33,25.6h-11.45v18.53h-18.34V238.94
		z M153.37,274.42h11.36c5.59,0,10.06-4.38,10.06-9.96c0-5.59-4.47-10.06-10.06-10.06h-11.36V274.42z"/>
	<path class="st1" d="M233.44,238.94c19.27,0,34.92,15.74,34.92,35.01s-15.64,34.82-34.92,34.82s-34.82-15.55-34.82-34.82
		S214.17,238.94,233.44,238.94z M233.44,257.19c-9.12,0-16.57,7.45-16.57,16.67c0,9.12,7.45,16.67,16.57,16.67
		c9.22,0,16.67-7.54,16.67-16.67C250.11,264.64,242.66,257.19,233.44,257.19z"/>
	<path class="st1" d="M278.69,238.85h55.03v18.25h-18.53v51.68h-18.34V257.1h-18.16V238.85z"/>
</g>
<g>
	<path class="st1" d="M103.78,127.45v30.66h26.92v-30.66h22.29v86.13H130.7v-32.84h-26.92v32.84H81.49v-86.13H103.78z"/>
	<path class="st1" d="M270.08,127.34h66.86v22.51h-22.51v63.73h-22.29v-63.73h-22.06V127.34z"/>
</g>
<linearGradient id="SVGID_1_" gradientUnits="userSpaceOnUse" x1="211.2249" y1="217.2022" x2="211.2249" y2="86.8177">
	<stop  offset="0" style="stop-color:#FCEE21"/>
	<stop  offset="0.0642" style="stop-color:#FBE521"/>
	<stop  offset="0.1698" style="stop-color:#F9CC22"/>
	<stop  offset="0.3037" style="stop-color:#F6A423"/>
	<stop  offset="0.4593" style="stop-color:#F26C24"/>
	<stop  offset="0.5056" style="stop-color:#F15A24"/>
	<stop  offset="0.7594" style="stop-color:#776671"/>
	<stop  offset="1" style="stop-color:#0071BC"/>
</linearGradient>
<path class="st2" d="M245.3,144.09l-34.1-57.28l-34.23,57.49c-6.4,7.71-10.24,17.6-10.24,28.4c0,24.58,19.92,44.5,44.5,44.5
	s44.5-19.92,44.5-44.5C255.72,161.81,251.8,151.83,245.3,144.09z M211.22,192.2c-10.22,0-18.5-8.28-18.5-18.5
	c0-10.22,8.28-18.5,18.5-18.5s18.5,8.28,18.5,18.5C229.72,183.92,221.44,192.2,211.22,192.2z"/>
</svg>
